<svg width="137" height="114" viewBox="0 0 137 114" fill="none"
    xmlns="http://www.w3.org/2000/svg">
    <defs>
        <linearGradient id="paint0_linear" x1="95.1434" y1="113.356" x2="95.1434" y2="49.4947" gradientUnits="userSpaceOnUse">
            <stop stop-color="#808080" stop-opacity="0.25"/>
            <stop offset="0.54" stop-color="#808080" stop-opacity="0.12"/>
            <stop offset="1" stop-color="#808080" stop-opacity="0.1"/>
        </linearGradient>
        <clipPath id="clip0">
            <rect width="137" height="114" fill="white"/>
        </clipPath>
    </defs>
    <g clip-path="url(#clip0)">
        <path opacity="0.1" d="M97.3678 113.999C105.098 113.999 111.364 113.382 111.364 112.621C111.364 111.861 105.098 111.244 97.3678 111.244C89.6381 111.244 83.3719 111.861 83.3719 112.621C83.3719 113.382 89.6381 113.999 97.3678 113.999Z" fill="#3DC5FF"/>
        <path opacity="0.1" d="M59.9807 1.66755C66.1449 -0.619861 73.6491 1.34739 80.0575 4.21654C100.185 13.2299 114.848 30.3399 126.498 47.7714C130.716 54.0832 134.723 60.673 136.308 67.7191C139.537 82.0607 131.116 96.9078 116.794 102.111C111.923 103.882 106.573 104.608 101.214 105.013C91.6843 105.733 81.8179 105.447 72.365 102.778C65.6236 100.871 59.2466 97.8029 53.1302 94.4133C36.0489 84.9421 20.4495 72.6427 9.21711 57.6185C4.29072 51.0288 0.123075 43.5998 0.00298536 35.9964C-0.117104 28.3931 4.84613 20.7529 13.0122 19.46C16.3883 18.926 19.9596 19.4818 23.4436 20.054C28.5733 20.8973 33.7726 21.7842 38.8437 21.4164C44.0826 21.0336 50.8963 18.99 51.8515 13.997C52.8627 8.63605 53.8248 3.95224 59.9807 1.66755Z" fill="#3DC5FF"/>
        <path d="M33.3001 104.74C33.3001 104.74 39.8859 104.344 39.1094 108.951C39.1094 108.951 39.2636 109.768 38.524 110.135C38.524 110.135 38.5131 109.793 37.8485 109.909C37.6124 109.949 37.3723 109.961 37.1334 109.944C36.8103 109.922 36.5033 109.795 36.2587 109.583C36.2587 109.583 34.4069 108.82 33.6877 105.799C33.6877 105.799 33.1541 105.141 33.1759 104.97L34.2868 105.444C34.2868 105.444 33.9074 106.245 34.2063 106.91C34.2063 106.91 34.2417 105.474 34.456 105.507C34.4983 105.514 35.0332 105.779 35.0332 105.779C35.0332 105.779 34.3796 107.173 34.8722 108.187C34.8722 108.187 34.6852 106.469 35.2366 105.88L36.0199 106.337C36.0199 106.337 35.2557 107.777 35.7742 108.951C35.7742 108.951 35.6378 107.149 36.1836 106.447L36.8932 106.992C36.8932 106.992 36.1754 108.412 36.6135 109.387C36.6135 109.387 36.6694 107.288 37.0461 107.13C37.0461 107.13 37.667 107.675 37.7612 107.901C37.7612 107.901 37.2699 108.931 37.5742 109.474C37.5742 109.474 37.7612 108.076 37.9154 108.07C37.9154 108.07 38.5322 108.996 38.5977 109.631C38.5977 109.631 38.5704 108.687 38.0641 107.981C38.0641 107.981 38.6618 108.083 39.0112 108.47C39.0112 108.47 38.9143 107.815 37.9126 107.758C37.9126 107.758 37.4023 107.056 37.2644 107.012C37.2644 107.012 38.262 106.929 38.8665 107.198C38.8665 107.198 38.3343 106.579 37.0816 106.86L36.3815 106.29C36.3815 106.29 37.6957 106.111 38.2511 106.309C38.2511 106.309 37.6111 105.764 36.1932 106.161L35.4317 105.706C35.4317 105.706 36.5507 105.465 37.218 105.552C37.218 105.552 36.5139 105.173 35.2079 105.583L34.662 105.339C34.662 105.339 35.4808 105.179 35.7224 105.153C35.9639 105.127 35.9748 105.062 35.9748 105.062C35.4554 104.975 34.922 105.034 34.4342 105.232C34.4342 105.232 33.2797 104.819 33.3001 104.74Z" fill="#3DC5FF"/>
        <path opacity="0.1" d="M37.8363 111.323C40.4109 111.323 42.498 110.971 42.498 110.537C42.498 110.103 40.4109 109.751 37.8363 109.751C35.2618 109.751 33.1747 110.103 33.1747 110.537C33.1747 110.971 35.2618 111.323 37.8363 111.323Z" fill="#3DC5FF"/>
        <path d="M24.4778 101.641C24.4778 101.641 28.191 101.417 27.7529 104.015C27.7761 104.147 27.7567 104.283 27.6976 104.403C27.6385 104.523 27.5427 104.621 27.4241 104.683C27.4241 104.683 27.4172 104.491 27.0433 104.556C26.9104 104.579 26.7752 104.585 26.6407 104.575C26.4581 104.564 26.2844 104.493 26.1467 104.372C26.1467 104.372 25.1041 103.94 24.6947 102.237C24.6947 102.237 24.3945 101.865 24.4054 101.77L25.0332 102.043C25.0332 102.043 24.8189 102.495 24.9868 102.869C24.9868 102.869 25.0073 102.059 25.1233 102.078C25.1478 102.078 25.4494 102.235 25.4494 102.235C25.4494 102.235 25.0809 103.021 25.3593 103.597C25.3593 103.597 25.2529 102.628 25.564 102.296L26.0048 102.553C26.0048 102.553 25.5749 103.371 25.8683 104.027C25.8683 104.027 25.7933 103.011 26.099 102.616L26.4988 102.927C26.4988 102.927 26.0894 103.726 26.3419 104.277C26.3419 104.277 26.3733 103.093 26.5862 103.004C26.5862 103.004 26.9355 103.312 26.9887 103.439C26.9887 103.439 26.7158 104.019 26.8837 104.326C26.8837 104.326 26.9887 103.538 27.0761 103.534C27.0761 103.534 27.4241 104.056 27.4595 104.414C27.4421 104.083 27.3387 103.763 27.1593 103.484C27.3601 103.521 27.5456 103.615 27.6929 103.756C27.6929 103.756 27.6397 103.387 27.0733 103.354C27.0733 103.354 26.7854 102.958 26.709 102.935C26.709 102.935 27.2712 102.887 27.6124 103.038C27.6124 103.038 27.3122 102.69 26.6053 102.848L26.2109 102.526C26.2109 102.526 26.9519 102.425 27.2658 102.537C27.2658 102.537 26.9041 102.229 26.1044 102.454L25.6759 102.196C26.006 102.124 26.3441 102.096 26.6817 102.111C26.6817 102.111 26.2859 101.897 25.549 102.128L25.242 101.992C25.242 101.992 25.7046 101.901 25.8397 101.887C25.9748 101.874 25.983 101.835 25.983 101.835C25.6898 101.787 25.389 101.82 25.1137 101.932C25.1137 101.932 24.4669 101.686 24.4778 101.641Z" fill="#3DC5FF"/>
        <path opacity="0.1" d="M27.0351 105.352C28.4866 105.352 29.6634 105.153 29.6634 104.908C29.6634 104.662 28.4866 104.463 27.0351 104.463C25.5835 104.463 24.4067 104.662 24.4067 104.908C24.4067 105.153 25.5835 105.352 27.0351 105.352Z" fill="#3DC5FF"/>
        <path d="M115.829 104.138C115.829 104.138 120.312 103.865 119.786 106.999C119.813 107.158 119.789 107.322 119.718 107.466C119.646 107.611 119.531 107.73 119.388 107.805C119.388 107.805 119.38 107.572 118.928 107.651C118.767 107.679 118.603 107.686 118.441 107.675C118.221 107.66 118.012 107.574 117.846 107.429C117.846 107.429 116.585 106.91 116.095 104.853C116.095 104.853 115.732 104.405 115.747 104.29L116.503 104.612C116.503 104.612 116.245 105.157 116.448 105.611C116.448 105.611 116.473 104.632 116.618 104.657C116.648 104.657 117.011 104.845 117.011 104.845C117.011 104.845 116.566 105.799 116.901 106.48C116.901 106.48 116.775 105.311 117.15 104.91L117.682 105.22C117.682 105.22 117.162 106.2 117.516 107C117.516 107 117.424 105.774 117.788 105.296L118.272 105.672C118.272 105.672 117.783 106.638 118.08 107.307C118.08 107.307 118.12 105.879 118.377 105.77C118.377 105.77 118.798 106.142 118.862 106.294C118.862 106.294 118.528 106.996 118.736 107.367C118.736 107.367 118.862 106.413 118.967 106.413C118.967 106.413 119.388 107.044 119.431 107.476C119.411 107.076 119.286 106.689 119.07 106.353C119.312 106.399 119.536 106.514 119.714 106.685C119.714 106.685 119.648 106.24 118.965 106.2C118.965 106.2 118.618 105.722 118.525 105.694C118.525 105.694 119.208 105.636 119.617 105.819C119.617 105.819 119.254 105.399 118.401 105.59L117.925 105.202C117.925 105.202 118.819 105.079 119.198 105.214C119.198 105.214 118.761 104.842 117.797 105.113L117.278 104.804C117.278 104.804 118.04 104.641 118.494 104.699C118.494 104.699 118.015 104.442 117.129 104.721L116.758 104.555C116.758 104.555 117.316 104.444 117.48 104.428C117.644 104.412 117.652 104.365 117.652 104.365C117.299 104.306 116.936 104.347 116.604 104.481C116.604 104.481 115.815 104.19 115.829 104.138Z" fill="#3DC5FF"/>
        <path opacity="0.1" d="M118.916 108.62C120.668 108.62 122.088 108.38 122.088 108.085C122.088 107.789 120.668 107.549 118.916 107.549C117.163 107.549 115.743 107.789 115.743 108.085C115.743 108.38 117.163 108.62 118.916 108.62Z" fill="#3DC5FF"/>
        <path d="M111.362 71.0637C111.276 70.584 111.227 70.0986 111.214 69.6114C111.214 69.027 110.418 68.5093 110.418 68.5093C110.418 68.5093 109.927 67.3744 109.599 67.2068C109.272 67.0393 108.26 65.5543 108.26 65.5543C108.249 65.2614 108.142 64.9802 107.956 64.7532C107.653 64.3556 107.377 63.9388 107.128 63.5053C106.991 63.3391 107.06 63.2219 106.855 62.2533C106.844 62.2029 106.832 62.1538 106.817 62.1075C106.817 62.0857 106.803 62.0666 106.795 62.0448C107.012 61.8273 107.163 61.5531 107.232 61.2536C107.3 60.9541 107.283 60.6414 107.181 60.3514C107.144 60.2361 107.077 60.1327 106.987 60.0517C106.757 59.8637 106.388 59.9414 106.151 59.7629L106.403 58.6485C106.463 58.376 106.495 58.0313 106.256 57.8842C106.166 57.8417 106.072 57.8102 105.975 57.7902C105.565 57.6539 105.328 57.2221 105.221 56.8066C105.119 56.4063 105.091 55.9907 105.14 55.5804C105.186 55.1853 105.302 54.8012 105.344 54.4047C105.421 53.6714 105.244 52.9339 104.843 52.3148C104.687 52.0477 104.458 51.831 104.182 51.6909C103.929 51.5778 103.636 51.5546 103.4 51.4184C102.892 51.0955 102.918 50.3285 102.513 49.8885C102.107 49.4484 101.389 49.4498 100.799 49.601C100.208 49.7522 99.6195 50.0097 99.0136 49.9457C98.6233 49.9021 98.2576 49.725 97.8659 49.6841C97.7539 49.6735 97.6409 49.6785 97.5302 49.6991V49.6868C97.2409 49.7386 96.9748 49.8994 96.9066 50.1732C96.8913 50.2383 96.8848 50.3052 96.8875 50.3721C96.8875 50.5315 96.9257 50.6977 96.9284 50.8503C96.9334 50.9109 96.9263 50.9719 96.9073 51.0297C96.8883 51.0875 96.8579 51.1409 96.8179 51.1868C96.7401 51.2699 96.6255 51.3135 96.5449 51.3993C96.5121 51.4321 96.4864 51.4713 96.4692 51.5144C96.4521 51.5575 96.444 51.6036 96.4453 51.65C96.4453 51.8925 96.7483 52.1064 96.9516 52.2045H96.9598C96.9052 52.259 96.8506 52.3162 96.8001 52.3748C96.2172 53.032 95.8958 53.8797 95.8967 54.7576C95.9017 55.4666 96.1141 56.1587 96.5078 56.7488C96.9016 57.3389 97.4595 57.8012 98.1129 58.079L98.0843 58.1676C98.0268 58.3427 97.9598 58.5146 97.8837 58.6825C97.7425 58.6351 97.5926 58.6191 97.4446 58.6356C97.2966 58.652 97.1539 58.7006 97.0267 58.7779C96.6364 59.0504 95.8735 59.0286 95.6702 58.9782C95.4669 58.9278 93.3503 58.6607 93.1797 58.7275C93.0091 58.7942 92.6721 58.4945 92.4524 58.8951C92.2326 59.2956 92.1303 59.5122 91.9065 59.613C91.6827 59.7138 91.2965 60.0299 91.3484 60.0967C91.4002 60.1634 90.7888 60.564 90.7888 60.564C90.7888 60.564 90.2635 61.1089 89.9591 61.1811C89.6548 61.2533 89.0107 61.6661 89.0107 61.6661L88.2642 62.2492C88.2642 62.2492 87.7061 62.3337 87.8753 61.9495C88.0445 61.5653 87.5696 61.0817 87.5696 61.0817C87.5696 61.0817 86.6212 59.1621 86.6212 58.7656C86.6212 58.3692 85.842 56.6785 85.842 56.6785L85.7465 56.669L85.7028 56.545C85.5595 56.1431 85.3739 55.6499 85.232 55.3611C84.9591 54.8093 84.7912 54.7521 84.7912 54.7521C84.7912 54.7521 81.5051 52.2889 79.3708 53.0396C77.2365 53.7903 83.2669 56.0273 83.8087 56.2616C83.9983 56.3433 84.1348 56.6076 84.2303 56.9169C83.7496 57.1483 83.3449 57.5118 83.0636 57.9646C83.0636 57.9646 84.3682 60.8514 84.4023 61.5694C84.4364 62.2873 85.3002 64.2941 85.3002 64.2941C85.3002 64.2941 85.6223 65.7805 87.3663 65.696C87.3663 65.696 89.7722 66.1374 90.2976 65.696C90.823 65.2546 91.2965 64.9085 91.5517 64.8581C91.7394 64.7966 91.9043 64.6803 92.0252 64.5244C92.0252 64.5244 91.2296 69.531 90.8393 69.9656C90.449 70.4002 87.0006 76.0214 88.2383 77.0268C89.2186 77.7846 90.2545 78.4677 91.3374 79.0703C91.4425 79.1221 91.7577 78.5976 92.2081 78.2257C92.2081 78.3197 92.2081 78.415 92.2081 78.5158C92.2163 80.5158 92.481 83.5566 92.8467 84.2378C93.3926 85.2391 93.1688 87.175 93.1688 87.175C93.4558 87.3099 93.7674 87.3845 94.0845 87.3944C94.1008 87.4598 94.12 87.5306 94.1377 87.5987C94.4366 88.7254 94.921 90.4679 95.168 90.9311C95.5406 91.6327 95.8108 93.8533 95.8108 93.8533C95.8108 93.8533 96.0318 96.0331 95.9472 96.3397C95.9145 96.4555 96.0578 97.3628 96.2829 98.5195C96.1465 100.085 95.8872 103.102 95.8435 104.194C95.8435 104.214 95.8435 104.235 95.8435 104.254V104.273C95.8442 104.285 95.8442 104.297 95.8435 104.31C95.8435 104.334 95.8435 104.356 95.8435 104.376C95.8393 104.445 95.842 104.514 95.8517 104.582C95.8686 104.686 95.8607 104.792 95.8285 104.893C95.7319 105.194 95.6091 105.487 95.4614 105.767C95.3992 105.905 95.3445 106.046 95.2976 106.19C95.1612 106.25 94.9947 106.395 94.9019 106.751C94.7327 107.402 94.4789 109.203 94.4789 109.203C94.4789 109.203 94.3765 110.305 94.1745 110.556C93.9726 110.807 93.7652 112.375 95.2076 112.575C96.65 112.775 97.2737 111.812 97.2737 111.812L97.2232 107.442V107.433C97.2523 107.397 97.2775 107.357 97.2982 107.315V107.304C97.3078 107.284 97.3187 107.262 97.3282 107.237L97.3405 107.205L97.3624 107.151C97.3616 107.145 97.3616 107.139 97.3624 107.132C97.5023 106.714 97.5444 106.269 97.4852 105.831V105.809V105.775C97.4852 105.765 97.4852 105.752 97.4852 105.741V105.673C97.4852 105.665 97.4852 105.656 97.4852 105.647C97.4852 105.618 97.4879 105.588 97.4934 105.557C97.4934 105.557 97.4934 105.547 97.4934 105.541L97.5016 105.488V105.465C97.5016 105.447 97.5016 105.429 97.5125 105.41C97.512 105.406 97.512 105.401 97.5125 105.397C97.5261 105.334 97.5425 105.26 97.5602 105.2V105.186L97.5807 105.12C97.6012 105.051 97.6244 104.984 97.6489 104.91V104.897C97.6489 104.875 97.664 104.853 97.6721 104.833V104.824C97.6967 104.758 97.7226 104.688 97.7472 104.631L97.754 104.613L97.7759 104.559L97.7827 104.542L97.8345 104.421L98.2344 105.654C98.2344 105.654 98.4555 106.572 98.3367 106.789C98.218 107.006 98.4732 107.908 98.641 107.924L98.4841 109.059C98.3993 109.684 98.3487 110.314 98.3326 110.946C98.3217 111.018 98.3108 111.082 98.3026 111.125C98.1934 111.707 98.4555 112.609 98.4555 112.609C99.7928 114.188 101.387 112.732 101.387 112.732C101.387 112.732 101.572 111.897 101.387 111.73C101.201 111.564 101.284 110.962 101.284 110.962C101.284 110.962 101.369 109.476 101.385 108.391C101.402 107.307 100.497 106.348 100.497 106.348L100.446 106.393C100.281 105.967 100.093 105.472 100.133 105.25C100.201 104.865 99.9456 100.81 99.9456 100.81C100.04 99.7223 100.06 98.6299 100.006 97.5399C100.028 97.356 100.048 97.1748 100.068 96.995C100.171 96.1231 100.254 95.3778 100.287 94.9868V94.9405C100.295 94.8356 100.299 94.7607 100.298 94.7253C100.298 94.589 100.298 94.4337 100.311 94.2634C100.343 93.7948 100.416 93.273 100.416 93.273L100.771 91.1191C100.771 91.1191 101.044 90.0673 101.433 89.4842L101.48 89.4107C101.495 89.3848 101.51 89.3562 101.526 89.3262L101.533 89.3139C101.548 89.2853 101.564 89.2554 101.579 89.224L101.586 89.2118C101.641 89.1041 101.699 88.9802 101.761 88.8439C101.761 88.833 101.77 88.8235 101.774 88.8126L101.821 88.7091C101.821 88.6954 101.832 88.6818 101.838 88.6682C101.845 88.6546 101.867 88.5987 101.882 88.5646C101.889 88.5509 101.895 88.5368 101.9 88.5224C101.918 88.4815 101.937 88.4393 101.954 88.3957L101.98 88.333C101.993 88.3017 102.006 88.2704 102.02 88.239L102.053 88.1559C102.062 88.1355 102.07 88.1151 102.079 88.0946L102.115 88.0006C102.115 87.987 102.128 87.972 102.133 87.9584C102.23 87.7173 102.323 87.4788 102.406 87.2622C102.432 87.1941 102.458 87.126 102.481 87.066C103.349 87.1192 103.939 87.1669 103.939 87.1669C103.939 87.1669 104.212 85.2146 104.124 83.9299C104.067 83.0525 104.231 81.949 104.338 81.3414C104.351 81.2746 104.362 81.2147 104.373 81.1602L104.396 81.1793C104.82 81.513 105.124 80.4109 105.124 80.4109C105.124 80.4109 105.01 79.3823 104.852 78.1357L104.835 78.0118C105.08 78.0638 105.327 78.1016 105.576 78.1248C105.576 78.1248 105.713 78.1126 105.9 78.0894C106.417 78.3883 106.963 78.6348 107.529 78.8251L108.431 77.163C108.601 76.8185 108.799 76.4889 109.025 76.178C109.298 75.8442 110.261 74.7761 110.245 74.5759C110.228 74.3756 110.567 73.2231 110.905 72.7054C111.244 72.1877 111.379 71.1468 111.362 71.0637ZM107.601 72.3321C107.245 72.4819 106.907 73.3171 106.89 73.5677C106.874 73.8184 106.5 74.9192 106.111 75.0527C105.752 75.1753 105.067 75.8047 104.958 75.9056C104.846 75.9151 104.719 75.9301 104.587 75.9519C104.438 74.8988 104.291 74.0268 104.197 73.8511C103.924 73.3498 104.495 71.7476 104.495 71.7476C104.495 71.7476 104.551 70.1291 104.905 69.7449C105.258 69.3607 105.178 68.3921 105.178 68.3921C105.178 68.3921 105.262 67.9916 105.296 67.809C105.331 67.6265 105.8 67.809 105.804 67.809C105.804 67.809 106.718 68.309 106.855 69.0597C106.991 69.8103 107.99 71.1128 107.99 71.1128C107.99 71.1128 107.837 71.5637 107.99 71.7939C108.143 72.0242 107.958 72.1822 107.601 72.3321Z" fill="url(#paint0_linear)"/>
        <path d="M83.1018 58.0667C83.38 57.6086 83.7873 57.2426 84.2727 57.0143C84.7581 56.7861 85.3002 56.7057 85.8311 56.7834V58.7329H84.6452L83.7173 58.4986L83.1018 58.0667Z" fill="#4C4981"/>
        <path opacity="0.1" d="M83.1018 58.0667C83.38 57.6086 83.7873 57.2426 84.2727 57.0143C84.7581 56.7861 85.3002 56.7057 85.8311 56.7834V58.7329H84.6452L83.7173 58.4986L83.1018 58.0667Z" fill="black"/>
        <path d="M85.9197 57.2997L84.4663 58.316C84.4663 58.316 84.4541 58.113 84.4172 57.8351C84.3449 57.3092 84.1825 56.5204 83.8318 56.3678C83.2982 56.1335 77.3579 53.902 79.4649 53.1513C81.5719 52.4006 84.8048 54.8611 84.8048 54.8611C84.8048 54.8611 84.9713 54.9183 85.2374 55.4673C85.3738 55.7561 85.5608 56.248 85.7013 56.6499C85.831 57.0122 85.9197 57.2997 85.9197 57.2997Z" fill="#AE6E79"/>
        <path d="M97.5302 58.8651L97.6953 58.7874L98.1593 59.316L97.7799 60.1239L97.1331 59.865L97.2832 59.2193L97.5302 58.8651Z" fill="#4C4981"/>
        <path d="M95.3318 106.181C95.3318 106.181 94.9142 106.132 94.7477 106.782C94.5812 107.432 94.3301 109.234 94.3301 109.234C94.3301 109.234 94.2305 110.334 94.0299 110.585C93.8293 110.835 93.6301 112.401 95.0479 112.599C96.4658 112.798 97.084 111.838 97.084 111.838L97.0335 107.469L95.3318 106.181Z" fill="#444053"/>
        <path d="M100.28 106.378C100.28 106.378 101.172 107.331 101.156 108.413C101.14 109.495 101.055 110.978 101.055 110.978C101.055 110.978 100.973 111.579 101.156 111.745C101.339 111.912 101.156 112.745 101.156 112.745C101.156 112.745 99.5866 114.199 98.2684 112.623C98.2684 112.623 98.0118 111.722 98.1183 111.142C98.2247 110.561 98.5222 107.952 98.5222 107.952L100.28 106.378Z" fill="#444053"/>
        <path d="M102.491 86.4557C102.491 86.4557 101.59 88.9706 101.205 89.5537C100.82 90.1368 100.556 91.1885 100.556 91.1885L100.205 93.337C100.136 93.8174 100.097 94.3014 100.088 94.7866C100.104 95.2702 99.2197 102.316 99.2197 102.316L97.8182 104.1C97.8182 104.1 97.2013 105.349 97.301 105.871C97.4006 106.393 97.2341 107.221 97.028 107.47C97.028 107.47 96.9953 109.105 96.9448 109.469C96.8943 109.833 97.129 110.869 96.9448 111.052C96.7606 111.234 94.3083 111.153 94.2414 110.852C94.1745 110.55 94.5416 109.102 94.5416 109.102L94.7586 107.703C94.7586 107.703 95.1926 106.937 95.093 106.687C94.9933 106.436 95.2758 105.854 95.2922 105.804C95.3086 105.754 95.7603 104.938 95.677 104.621C95.5938 104.305 96.2024 97.5835 96.2024 97.5835L97.9205 85.5388L102.491 86.4557Z" fill="#AE6E79"/>
        <path opacity="0.1" d="M102.491 86.4557C102.491 86.4557 102.354 86.8344 102.167 87.3317C101.87 88.1164 101.441 89.1968 101.205 89.5537C100.822 90.1368 100.554 91.1885 100.554 91.1885L100.204 93.3383C100.136 93.8188 100.097 94.3028 100.088 94.7879C100.088 94.9786 99.9593 96.1952 99.7956 97.5971C99.5431 99.7401 99.2197 102.318 99.2197 102.318L97.8182 104.101C97.8182 104.101 97.7472 104.237 97.6585 104.453C97.4825 104.861 97.2341 105.525 97.301 105.867C97.4006 106.383 97.2341 107.215 97.028 107.466C97.028 107.466 96.9939 109.101 96.9448 109.465C96.8957 109.828 97.129 110.864 96.9448 111.048C96.7606 111.232 94.3083 111.149 94.2414 110.849C94.1745 110.549 94.5416 109.1 94.5416 109.1L94.7586 107.699C94.7586 107.699 95.1926 106.933 95.0916 106.683C94.9906 106.432 95.2758 105.85 95.2922 105.8C95.3086 105.749 95.7603 104.933 95.677 104.617C95.6129 104.376 95.95 100.429 96.1069 98.5576C96.1601 97.969 96.1942 97.5862 96.1942 97.5862L97.6722 87.2241L97.7922 86.3889L97.9123 85.5415L102.491 86.4557Z" fill="black"/>
        <path d="M100.99 111.511C101.005 111.695 98.6357 111.962 98.2972 111.762C97.9588 111.561 98.2972 109.079 98.2972 109.079L98.4514 107.947C98.2863 107.929 98.0352 107.03 98.1512 106.813C98.2672 106.597 98.0516 105.681 98.0516 105.681L97.6586 104.455L97.4184 103.705C97.0281 102.845 96.4632 100.393 96.1124 98.5617C95.8914 97.4118 95.7508 96.5058 95.7822 96.39C95.8654 96.0903 95.6457 93.9078 95.6457 93.9078C95.6457 93.9078 95.3728 91.6913 95.0125 90.9924C94.7683 90.5292 94.292 88.7894 93.9972 87.6668C93.8471 87.0905 93.7434 86.6764 93.7434 86.6764C93.7434 86.6764 96.2653 86.4652 97.795 86.3917C98.4978 86.3576 98.9918 86.3535 98.9345 86.4107C98.8772 86.4679 98.8622 86.7731 98.8649 87.2145C98.8718 88.3576 99.0314 90.3684 99.2006 90.9093C99.434 91.6586 99.6673 93.9065 99.5677 94.1244C99.4681 94.3424 99.5009 95.7906 99.5009 95.7906C99.6728 96.3789 99.7718 96.9861 99.7956 97.5985C99.849 98.6834 99.8298 99.7707 99.7383 100.853C99.7383 100.853 99.988 104.902 99.9212 105.285C99.8543 105.668 100.455 106.868 100.455 107.101C100.455 107.334 100.621 108.917 100.621 108.917C100.621 108.917 100.979 111.328 100.99 111.511Z" fill="#AE6E79"/>
        <path d="M102.306 62.8473L102.02 63.1565L101.833 63.3582L100.741 64.5298L97.9204 64.8472L96.4193 64.4467L96.0481 64.3472C96.0481 64.3472 96.0481 63.5952 96.115 62.6933C96.2105 61.5367 96.4384 60.1321 96.9829 59.7492C97.2555 59.5362 97.4731 59.261 97.6174 58.9468C97.7263 58.7301 97.8176 58.5051 97.8904 58.2738C97.9013 58.2438 97.9095 58.2152 97.919 58.1853C98.0418 57.7815 98.1304 57.3682 98.1838 56.9496C98.1838 56.9496 98.544 56.7507 99.0449 56.5191C100.351 55.9101 102.607 55.0695 101.822 56.9496C101.707 57.2249 101.608 57.507 101.527 57.7942C101.515 57.8365 101.504 57.8787 101.494 57.9196C101.232 58.9659 101.406 59.6007 101.601 59.9509C101.634 60.0115 101.672 60.0694 101.714 60.1239C101.767 60.197 101.831 60.2617 101.904 60.316L102.229 62.3745L102.256 62.5448L102.306 62.8473Z" fill="#AE6E79"/>
        <path opacity="0.1" d="M101.823 57.0504C101.675 57.4073 101.896 56.7588 101.823 57.0504C101.228 57.4727 99.8269 58.6757 99.0395 58.6757C98.5073 58.6757 98.3476 58.579 97.8918 58.3732C98.0298 57.9421 98.128 57.4993 98.1852 57.0504C98.1852 57.0504 102.908 54.451 101.823 57.0504Z" fill="black"/>
        <path d="M103.026 54.8611C103.025 55.7583 102.692 56.6235 102.091 57.2903C101.489 57.957 100.662 58.3782 99.7683 58.4727C99.6428 58.4849 99.5158 58.4931 99.3876 58.4931C98.668 58.4931 97.9646 58.2801 97.3663 57.881C96.768 57.4819 96.3017 56.9147 96.0263 56.251C95.751 55.5873 95.6789 54.857 95.8193 54.1525C95.9597 53.4479 96.3062 52.8008 96.815 52.2928C97.3238 51.7849 97.9721 51.4389 98.6778 51.2988C99.3835 51.1587 100.115 51.2306 100.78 51.5055C101.445 51.7804 102.013 52.2459 102.413 52.8432C102.812 53.4405 103.026 54.1427 103.026 54.8611Z" fill="#AE6E79"/>
        <path opacity="0.1" d="M103.543 70.9615L103.024 72.3116C103.024 72.3116 102.603 72.3293 101.945 72.3498C99.7246 72.4206 94.8323 72.5105 94.614 71.941C94.5651 71.7966 94.5393 71.6453 94.5376 71.4928C94.5089 70.625 94.9142 69.2926 94.9142 69.2926C94.9142 69.2926 95.1476 66.6265 95.1476 66.5107C95.1476 66.3949 94.947 64.527 94.947 64.527L95.3482 63.0284L96.4658 62.2451C96.4658 62.2451 96.9667 63.0121 97.2669 63.0775C97.5671 63.1429 97.9683 63.5121 97.9683 63.5121C97.9683 63.5121 98.9522 64.1115 99.2702 63.7777C99.5882 63.444 102.057 61.9781 102.057 61.9781L103.359 63.4113L103.543 70.9615Z" fill="black"/>
        <path d="M103.543 71.1686L103.024 72.5173C103.024 72.5173 102.603 72.5364 101.945 72.5568H101.881C101.597 72.5664 101.272 72.5759 100.925 72.5827C99.161 72.6236 96.7305 72.6345 95.46 72.4465C94.9824 72.3784 94.6699 72.2803 94.618 72.1468C94.5893 72.0665 94.5691 71.9833 94.558 71.8988C94.5498 71.8361 94.5443 71.7626 94.5416 71.6985C94.513 70.8307 94.9183 69.4983 94.9183 69.4983C94.9183 69.4983 95.1516 66.8322 95.1516 66.7164C95.1516 66.6006 94.951 64.7328 94.951 64.7328L95.3522 63.2342L96.1205 62.6974L96.4699 62.4522C96.5874 62.6278 96.7154 62.7961 96.8533 62.9562C96.961 63.1006 97.1051 63.2139 97.2709 63.2846C97.5725 63.3513 97.9723 63.7192 97.9723 63.7192C97.9723 63.7192 98.9563 64.3186 99.2742 63.9848C99.5158 63.7301 101.017 62.8132 101.71 62.395C101.923 62.2655 102.061 62.1852 102.061 62.1852L102.236 62.3786L103.363 63.6184L103.543 71.1686Z" fill="white"/>
        <path opacity="0.1" d="M85.9197 57.2997L84.4664 58.3161C84.4664 58.3161 84.4541 58.1131 84.4172 57.8351C85.135 57.5327 85.5717 56.8638 85.6973 56.6499C85.831 57.0123 85.9197 57.2997 85.9197 57.2997Z" fill="black"/>
        <path d="M91.0262 60.7492L90.7096 60.6647C90.7096 60.6647 90.191 61.2097 89.8908 61.2819C89.5906 61.3541 88.9574 61.7642 88.9574 61.7642L88.2219 62.3472C88.2219 62.3472 87.676 62.4317 87.8384 62.0475C88.0008 61.6633 87.5382 61.1811 87.5382 61.1811C87.5382 61.1811 86.6034 59.2656 86.6034 58.865C86.6034 58.4645 85.831 56.7834 85.831 56.7834C85.831 56.7834 84.8621 58.6661 83.0935 58.0667C83.0935 58.0667 84.379 60.9481 84.4118 61.6647C84.4445 62.3813 85.2961 64.3799 85.2961 64.3799C85.2961 64.3799 85.614 65.8635 87.3321 65.7804C87.3321 65.7804 89.7025 66.2204 90.2197 65.7804C90.7369 65.3404 91.2036 64.9943 91.4479 64.9439C91.6922 64.8935 91.9146 64.6115 91.9146 64.6115V62.6306L91.0262 60.7492Z" fill="#4C4981"/>
        <path opacity="0.1" d="M88.0554 62.6306C88.0554 62.6306 88.473 64.1811 88.2055 64.3473L88.0554 62.6306Z" fill="black"/>
        <path opacity="0.1" d="M101.945 72.55C99.7245 72.6208 94.8322 72.7094 94.6139 72.1413C94.5649 71.9968 94.5392 71.8456 94.5375 71.6931L101.791 72.0745L101.945 72.55Z" fill="black"/>
        <path opacity="0.1" d="M102.491 86.4557C102.491 86.4557 102.354 86.8344 102.167 87.3317C101.246 87.2758 100.026 87.2172 98.8676 87.2091C98.4582 87.2091 98.057 87.2091 97.6777 87.2227C96.8725 87.2472 96.1765 87.3126 95.733 87.4379C95.1723 87.6103 94.5861 87.6859 93.9999 87.6614C93.8498 87.0851 93.7461 86.6709 93.7461 86.6709C93.7461 86.6709 96.268 86.4598 97.7977 86.3862L97.9178 85.5388L102.491 86.4557Z" fill="black"/>
        <path d="M104.444 80.3578L104.16 80.9572C104.16 80.9572 104.12 81.1357 104.07 81.4191C103.963 82.0294 103.797 83.1302 103.859 84.0076C103.943 85.2909 103.675 87.2391 103.675 87.2391C103.675 87.2391 97.5343 86.7227 95.7329 87.2391C93.9316 87.7554 93.0446 87.2391 93.0446 87.2391C93.0446 87.2391 93.2629 85.3072 92.728 84.3073C92.3636 83.6261 92.1071 80.5853 92.0989 78.5853C92.0989 77.663 92.1453 76.9641 92.2613 76.8224C92.6284 76.3729 94.1963 71.8743 94.1963 71.8743L94.5539 71.8934L95.5091 71.9438L100.94 72.2299L101.793 72.2749L101.883 72.5473L104.444 80.3578Z" fill="#444053"/>
        <path d="M107.147 78.3578L107.197 78.8919C107.197 78.8919 104.508 78.0172 104.644 76.9423C104.781 75.8674 104.644 75.9886 104.644 75.9886L106.806 76.1712L107.147 78.3578Z" fill="#4C4981"/>
        <path opacity="0.1" d="M107.147 78.3578L107.197 78.8919C107.197 78.8919 104.508 78.0172 104.644 76.9423C104.781 75.8674 104.644 75.9886 104.644 75.9886L106.806 76.1712L107.147 78.3578Z" fill="black"/>
        <path opacity="0.1" d="M89.8499 63.0612C90.1246 63.2941 90.4483 63.4622 90.797 63.553C90.696 63.5311 90.6022 63.4843 90.5241 63.4168C90.3316 63.2805 90.1488 63.132 89.9632 62.9876C89.8131 62.8705 89.6261 62.6756 89.4419 62.628C89.5625 62.7861 89.6993 62.9313 89.8499 63.0612Z" fill="black"/>
        <path opacity="0.1" d="M89.8908 63.7628C89.9773 63.8603 90.0474 63.9712 90.0983 64.0911C90.1844 64.4302 90.1792 64.786 90.0833 65.1225L89.652 64.0843C89.577 63.9072 89.5019 63.7301 89.4118 63.5612C89.3723 63.489 89.1239 63.1879 89.1526 63.1252C89.229 62.9481 89.8103 63.6634 89.8908 63.7628Z" fill="black"/>
        <path opacity="0.1" d="M101.923 69.512C102.217 69.4764 102.492 69.348 102.708 69.1455C102.264 69.2013 101.844 69.3757 101.407 69.467C101.002 69.561 100.577 69.5218 100.195 69.3553C100.698 69.6005 101.388 69.6087 101.923 69.512Z" fill="black"/>
        <path opacity="0.1" d="M100.669 66.4616C100.589 66.4734 100.508 66.4533 100.444 66.4057C100.111 66.215 99.7823 66.0161 99.4585 65.809C99.1432 65.606 98.7625 65.4003 98.4937 65.1442C99.1555 65.7409 99.7723 66.245 100.669 66.4616Z" fill="black"/>
        <path opacity="0.1" d="M101.594 69.9956C101.769 70.0035 101.944 69.9893 102.115 69.9534C102.289 69.9174 102.442 69.8171 102.544 69.6727C102.482 69.6585 102.417 69.6687 102.362 69.7013C101.834 69.9235 101.253 69.9929 100.687 69.9016C100.958 70.0174 101.306 69.9942 101.594 69.9956Z" fill="black"/>
        <path opacity="0.1" d="M98.4336 77.7311C98.0861 77.8357 97.7291 77.9055 97.3678 77.9396C97.0866 77.9525 96.8049 77.9471 96.5245 77.9232L95.1598 77.8374L94.4775 77.7938C94.397 77.7938 94.0681 77.7938 94.2305 77.6317C94.3124 77.5526 94.7682 77.6031 94.8855 77.599C95.112 77.5917 95.3395 77.5876 95.5678 77.5867C96.0195 77.5867 96.4726 77.5867 96.9243 77.614C97.4306 77.6385 97.9287 77.6766 98.4336 77.7311Z" fill="black"/>
        <path opacity="0.1" d="M96.852 78.4055C96.62 78.396 96.3212 78.5336 96.0823 78.5635C95.8152 78.5951 95.546 78.6055 95.2772 78.5949C94.7453 78.5821 94.2199 78.4751 93.7256 78.2788C94.7668 78.3319 95.8108 78.3633 96.852 78.4055Z" fill="black"/>
        <path opacity="0.1" d="M93.9289 79.1194C94.0299 79.1397 94.1293 79.167 94.2264 79.2011C94.8023 79.3646 95.415 79.2202 96.0005 79.0758C95.8545 79.2951 95.5911 79.3891 95.3277 79.4491C94.8993 79.5574 94.4528 79.5737 94.0176 79.4967C93.8812 79.4695 93.5386 79.4205 93.4718 79.2788C93.3599 79.0703 93.8006 79.0989 93.9289 79.1194Z" fill="black"/>
        <path opacity="0.1" d="M97.1577 80.1943C97.3304 80.2295 97.5008 80.275 97.6681 80.3305C98.3163 80.4913 98.989 80.2706 99.64 80.1221C100.422 79.9447 101.225 79.8705 102.027 79.9013C101.883 79.9013 101.656 80.0267 101.515 80.0689C101.331 80.1248 101.144 80.1766 100.957 80.2229C100.59 80.3128 100.217 80.3864 99.8419 80.4395C99.0843 80.5488 98.3177 80.5822 97.5534 80.5389C97.2041 80.5199 96.5982 80.5553 96.2993 80.3795C96.5577 80.2263 96.859 80.1612 97.1577 80.1943Z" fill="black"/>
        <path opacity="0.1" d="M97.4019 59.6471C97.4019 59.6471 97.4347 61.1811 97.1849 61.8814C97.1058 62.0993 96.983 62.5012 96.8492 62.9522C96.7032 63.4522 96.5436 64.0121 96.4207 64.4508C96.2979 64.8895 96.216 65.1837 96.216 65.1837C96.216 65.1837 95.6524 69.7667 95.5064 71.9506C95.5064 71.9887 95.5064 72.0282 95.4982 72.065C95.49 72.1876 95.4764 72.3157 95.4559 72.4479C95.1311 74.6167 93.2575 77.9613 92.6284 78.2284C92.4322 78.3182 92.253 78.4413 92.0989 78.5921C92.0989 77.6698 92.1453 76.9709 92.2613 76.8292C92.6284 76.3796 94.1963 71.8811 94.1963 71.8811L94.5539 71.9002C94.5457 71.8375 94.5402 71.7639 94.5375 71.6999C94.5089 70.8321 94.9142 69.4997 94.9142 69.4997C94.9142 69.4997 95.1475 66.8336 95.1475 66.7177C95.1475 66.6019 94.9469 64.7341 94.9469 64.7341L95.3481 63.2355L96.1164 62.6988C96.2119 61.5421 96.4398 60.1375 96.9843 59.7547C97.257 59.5416 97.4746 59.2665 97.6189 58.9523C97.7267 58.9673 97.5302 58.8719 97.5302 58.8719L97.4019 59.6471Z" fill="black"/>
        <path d="M97.6953 58.7874C97.5562 58.7399 97.4083 58.7239 97.2622 58.7404C97.1161 58.7568 96.9755 58.8055 96.8506 58.8828C96.4657 59.1553 95.7152 59.1321 95.5146 59.0831C95.314 59.034 93.2288 58.7656 93.0582 58.8324C92.8876 58.8991 92.5574 58.5994 92.3404 59C92.1234 59.4005 92.0238 59.6157 91.8068 59.7152C91.5898 59.8146 91.205 60.1321 91.261 60.1988C91.3169 60.2656 90.7151 60.6648 90.7151 60.6648L91.9324 64.6156C91.9324 64.6156 91.1477 69.6128 90.7642 70.046C90.3808 70.4792 86.976 76.0935 88.1946 77.0935C89.1594 77.8509 90.1803 78.534 91.2487 79.1371C91.3851 79.2038 91.8655 78.3047 92.5328 78.0213C93.2001 77.7379 95.2703 73.9887 95.3986 71.8566C95.5268 69.7245 96.1164 64.9766 96.1164 64.9766C96.1164 64.9766 96.8342 62.3773 97.0839 61.677C97.3336 60.9767 97.3009 59.4427 97.3009 59.4427L97.6953 58.7874Z" fill="#4C4981"/>
        <path opacity="0.1" d="M104.444 80.3578L104.16 80.9572C104.16 80.9572 104.12 81.1357 104.07 81.4191C104.019 81.4127 103.972 81.3913 103.933 81.3578C103.516 81.024 101.067 78.509 100.946 76.2761C100.86 74.629 100.901 73.2094 100.928 72.5773C100.936 72.3784 100.945 72.2585 100.945 72.2326C100.945 72.2326 102.847 69.933 102.63 69.1183C102.413 68.3036 101.912 63.9413 101.912 63.9413L101.838 63.3691L101.712 62.4018L101.409 60.0612L101.722 60.1348C101.776 60.2079 101.84 60.2727 101.912 60.3269L102.237 62.3854L103.364 63.6252L103.548 71.1727L103.03 72.5214C103.03 72.5214 102.608 72.5405 101.95 72.561H101.886L104.444 80.3578Z" fill="black"/>
        <path d="M105.494 67.8989C105.494 67.8989 105.028 67.715 104.995 67.8989C104.962 68.0828 104.878 68.4807 104.878 68.4807C104.878 68.4807 104.961 69.4479 104.605 69.8308C104.248 70.2136 104.195 71.8293 104.195 71.8293C104.195 71.8293 103.633 73.4288 103.899 73.9288C103.996 74.11 104.146 75.0186 104.296 76.1085C104.392 76.7897 104.486 77.5377 104.569 78.2216C104.721 79.464 104.834 80.4926 104.834 80.4926C104.834 80.4926 104.532 81.5921 104.115 81.2583C103.697 80.9245 101.249 78.4096 101.129 76.1767C101.047 74.6086 101.08 73.2462 101.107 72.5746C101.118 72.2898 101.129 72.1291 101.129 72.1291C101.129 72.1291 103.031 69.8294 102.814 69.0133C102.597 68.1973 102.096 63.8364 102.096 63.8364L102.009 63.162L101.915 62.4372L101.893 62.2778L101.591 59.9618C101.645 59.9741 103.517 60.3964 103.764 60.643C104.011 60.8896 105.538 61.2424 105.538 61.2424C105.768 61.3048 105.978 61.4277 106.144 61.5983C106.311 61.7689 106.429 61.981 106.485 62.2124C106.5 62.2587 106.511 62.3078 106.522 62.3582C106.723 63.3255 106.658 63.4413 106.795 63.6088C106.931 63.7764 105.494 67.8989 105.494 67.8989Z" fill="#4C4981"/>
        <path opacity="0.1" d="M104.58 78.2202C103.898 78.084 102.885 77.7693 102.908 77.0745C102.929 76.4246 103.712 76.1903 104.306 76.1072C104.401 76.7856 104.495 77.5363 104.58 78.2202Z" fill="black"/>
        <path d="M106.697 77.8741C106.669 77.9327 106.56 77.9831 106.405 78.0281C106.04 78.1148 105.669 78.1754 105.295 78.2093C105.295 78.2093 102.975 78.0254 103.008 76.975C103.032 76.2216 104.081 76.0213 104.669 75.9764C104.799 75.9642 104.93 75.9588 105.06 75.96C105.06 75.96 106.796 77.6589 106.697 77.8741Z" fill="#AE6E79"/>
        <path opacity="0.1" d="M106.697 77.8741C106.669 77.9327 106.56 77.9831 106.404 78.0281C105.8 77.2202 104.957 76.1834 104.543 76.0922L104.669 75.9764C104.799 75.9642 104.93 75.9588 105.06 75.96C105.06 75.96 106.796 77.6589 106.697 77.8741Z" fill="black"/>
        <path d="M106.113 63.4971L106.795 63.5979C107.041 64.0312 107.315 64.4484 107.614 64.8472C107.797 65.0748 107.902 65.3551 107.914 65.6469C107.914 65.6469 108.916 67.1292 109.232 67.2954C109.549 67.4616 110.033 68.5951 110.033 68.5951C110.033 68.5951 110.818 69.1114 110.818 69.6945C110.832 70.1808 110.882 70.6653 110.968 71.1441C110.986 71.2272 110.852 72.2612 110.518 72.7789C110.183 73.2966 109.849 74.4383 109.867 74.6426C109.884 74.847 108.932 75.9096 108.666 76.2421C108.444 76.5529 108.248 76.882 108.082 77.2257L107.197 78.8919C107.197 78.8919 105.328 76.1426 104.644 75.9927C104.644 75.9927 105.411 75.2598 105.795 75.1263C106.178 74.9928 106.546 73.9002 106.563 73.644C106.579 73.3879 106.914 72.5609 107.263 72.4179C107.612 72.2748 107.798 72.1182 107.648 71.8839C107.498 71.6495 107.648 71.2027 107.648 71.2027C107.648 71.2027 106.662 69.903 106.529 69.1591C106.395 68.4153 105.494 67.9098 105.494 67.9098L104.977 66.6428L106.113 63.4971Z" fill="#4C4981"/>
        <path opacity="0.1" d="M108.595 69.7163C108.972 69.398 109.448 69.2182 109.942 69.2068C109.625 69.2613 109.292 69.3308 109.06 69.5515C108.969 69.647 108.887 69.751 108.816 69.8621C108.737 69.9752 108.093 70.7926 107.997 70.6632C107.837 70.4738 108.465 69.8267 108.595 69.7163Z" fill="black"/>
        <path opacity="0.1" d="M107.083 68.9275C107.185 68.9187 107.283 68.8829 107.367 68.8238C107.45 68.7646 107.517 68.6843 107.559 68.591C107.64 68.4033 107.691 68.2036 107.708 67.9998C107.757 67.6586 107.825 67.3206 107.914 66.9875C107.94 66.9217 107.952 66.8507 107.947 66.7799C107.942 66.7091 107.921 66.6403 107.885 66.5788C107.849 66.4724 107.799 66.3708 107.738 66.2764C107.615 66.4126 107.579 66.73 107.529 66.9126C107.466 67.1387 107.409 67.3663 107.354 67.5938C107.326 67.7028 107.099 68.9275 107.083 68.9275Z" fill="black"/>
        <path opacity="0.1" d="M106.492 62.2015C106.425 62.2893 106.347 62.3689 106.261 62.4385C105.988 62.6552 105.627 62.8377 105.593 63.1797C105.602 63.2908 105.588 63.4026 105.552 63.508C105.464 63.6579 105.25 63.6442 105.079 63.6156C104.936 63.6027 104.798 63.5519 104.68 63.4685C104.501 63.3159 104.485 63.0434 104.348 62.8513C104.265 62.7522 104.16 62.6735 104.042 62.6212C103.924 62.569 103.795 62.5447 103.666 62.5503C103.411 62.5421 103.157 62.5993 102.902 62.6102C102.737 62.6185 102.573 62.6075 102.412 62.5775C102.358 62.5694 102.305 62.5585 102.253 62.5448C102.139 62.5168 102.028 62.4789 101.92 62.4317C101.865 62.4096 101.81 62.3842 101.758 62.3554C101.587 62.2679 101.429 62.1579 101.287 62.0285C101.037 61.7996 100.83 61.4835 100.85 61.1443C100.863 60.9359 100.957 60.7438 100.987 60.538C101.089 59.9495 100.698 59.3937 100.273 58.9727C100.104 58.8051 99.9239 58.643 99.7546 58.4727C99.4911 58.2301 99.2831 57.9336 99.1446 57.6035C99.0308 57.2521 98.9936 56.8805 99.0355 56.5136C99.0738 56.1416 99.0843 55.7673 99.0668 55.3938C98.9413 54.0695 97.8086 53.0546 96.676 52.5028L96.6255 52.4769C96.9615 52.0919 97.3751 51.7821 97.8392 51.5675C98.3034 51.3529 98.8076 51.2385 99.3191 51.2317C99.8305 51.225 100.338 51.3259 100.807 51.5281C101.277 51.7303 101.699 52.0291 102.045 52.405C102.391 52.781 102.654 53.2256 102.816 53.7098C102.978 54.194 103.037 54.707 102.987 55.2152C102.937 55.7234 102.781 56.2154 102.527 56.6591C102.274 57.1028 101.93 57.4882 101.518 57.7902C101.505 57.8324 101.495 57.8746 101.485 57.9155C101.223 58.9618 101.396 59.5967 101.591 59.9468C101.645 59.959 103.517 60.3814 103.764 60.628C104.011 60.8746 105.538 61.2274 105.538 61.2274C105.77 61.2891 105.981 61.4121 106.149 61.5835C106.317 61.755 106.435 61.9685 106.492 62.2015Z" fill="black"/>
        <path d="M96.3852 51.5165C96.4603 51.4306 96.5735 51.387 96.65 51.3039C96.8861 51.0478 96.65 50.6296 96.7359 50.2917C96.8287 49.9171 97.29 49.7536 97.6748 49.7931C98.0596 49.8326 98.4199 50.0097 98.8047 50.0533C99.4025 50.12 99.9811 49.8612 100.564 49.71C101.146 49.5588 101.851 49.5506 102.252 49.9961C102.653 50.4416 102.626 51.2004 103.125 51.5233C103.356 51.6718 103.647 51.6881 103.896 51.7958C104.17 51.9358 104.396 52.1521 104.549 52.4184C104.944 53.0382 105.118 53.7732 105.043 54.5041C105 54.8992 104.886 55.2834 104.839 55.6785C104.792 56.0888 104.82 56.5042 104.921 56.9046C105.026 57.3133 105.254 57.7547 105.662 57.8855C105.756 57.9062 105.848 57.9378 105.935 57.9795C106.171 58.1267 106.14 58.4727 106.08 58.7424L105.837 59.8609C106.07 60.0381 106.433 59.9618 106.656 60.1484C106.745 60.2297 106.811 60.3331 106.847 60.4481C106.956 60.7609 106.968 61.0996 106.881 61.4193C106.793 61.739 106.611 62.0246 106.357 62.2383C106.084 62.4549 105.722 62.6374 105.688 62.978C105.698 63.0892 105.684 63.2012 105.647 63.3064C105.561 63.4562 105.346 63.4426 105.175 63.414C105.031 63.4008 104.894 63.3501 104.776 63.2669C104.596 63.1143 104.581 62.8418 104.445 62.6497C104.362 62.5507 104.257 62.4721 104.139 62.4199C104.02 62.3677 103.892 62.3433 103.763 62.3486C103.506 62.3405 103.254 62.3977 102.997 62.4099C102.405 62.4341 101.828 62.2258 101.388 61.8296C101.137 61.5993 100.931 61.2846 100.95 60.944C100.962 60.737 101.056 60.5435 101.086 60.3378C101.187 59.7506 100.797 59.1934 100.373 58.7724C99.9483 58.3515 99.4502 57.9632 99.2428 57.4032C98.9835 56.7098 99.2346 55.936 99.165 55.2003C99.0395 53.8747 97.9082 52.8611 96.7741 52.308C96.5217 52.1786 96.0918 51.8502 96.3852 51.5165Z" fill="#444053"/>
        <path opacity="0.1" d="M105.31 62.9577C105.13 62.8037 105.115 62.5326 104.978 62.3405C104.895 62.2414 104.791 62.1627 104.672 62.1102C104.554 62.0578 104.425 62.0331 104.296 62.0381C104.04 62.0299 103.786 62.0871 103.531 62.0994C102.937 62.1254 102.356 61.9163 101.916 61.5176C101.665 61.2888 101.46 60.9727 101.479 60.6335C101.492 60.425 101.586 60.2316 101.616 60.0272C101.718 59.4387 101.327 58.8815 100.902 58.4605C100.478 58.0395 99.9811 57.6512 99.7723 57.0913C99.5144 56.3992 99.7723 55.6254 99.6959 54.8884C99.569 53.5628 98.4377 52.5492 97.305 51.9961C97.0403 51.8666 96.6104 51.5383 96.9038 51.2045C96.9775 51.1187 97.0908 51.0751 97.1672 50.992C97.4033 50.7372 97.1672 50.3176 97.2545 49.9811C97.2713 49.9141 97.3005 49.8508 97.3405 49.7945C97.0553 49.8476 96.7946 50.0084 96.725 50.2808C96.6418 50.6187 96.8751 51.0369 96.6391 51.2931C96.5626 51.3762 96.4494 51.4198 96.3743 51.5042C96.0809 51.838 96.5108 52.1677 96.7755 52.2958C97.9095 52.8489 99.0408 53.8639 99.1664 55.1881C99.236 55.9251 98.9849 56.6989 99.2442 57.3924C99.4516 57.951 99.9497 58.346 100.374 58.7616C100.799 59.1771 101.193 59.7384 101.088 60.3269C101.03 60.5261 100.985 60.7286 100.951 60.9332C100.932 61.2724 101.138 61.5885 101.389 61.8174C101.829 62.2162 102.409 62.4254 103.002 62.3991C103.259 62.3868 103.511 62.331 103.768 62.3378C103.897 62.3329 104.026 62.3577 104.144 62.4101C104.262 62.4625 104.367 62.5412 104.45 62.6402C104.587 62.8323 104.602 63.1048 104.782 63.2574C104.9 63.3401 105.037 63.3904 105.18 63.4032C105.351 63.4345 105.567 63.4454 105.653 63.2969C105.683 63.2363 105.696 63.1684 105.691 63.1007C105.553 63.0873 105.422 63.0379 105.31 62.9577Z" fill="black"/>
        <path d="M85.4448 54.8611H76.0055V45.5752H85.4517L85.4448 54.8611ZM85.3084 40.8601H76.142C76.142 26.4299 89.8813 27.2732 89.8813 18.144C89.8813 13.1155 85.7587 9.08697 80.7218 9.08697C75.6849 9.08697 71.5636 13.4302 71.5636 18.287H62.4041C62.3999 15.8844 62.8709 13.5046 63.79 11.284C64.7091 9.06346 66.0582 7.04587 67.76 5.34694C69.4618 3.64801 71.4827 2.30115 73.707 1.38361C75.9313 0.46606 78.3151 -0.00413107 80.7218 -3.5774e-06C90.8393 -3.5774e-06 99.0395 8.05839 99.0395 18.144C99.0395 29.5592 85.3015 30.8589 85.3015 40.8601H85.3084Z" fill="#3DC5FF"/>
        <path opacity="0.1" d="M38.3658 52.0955H35.9312V49.695H38.3658V52.0955ZM38.3289 48.4852H35.9681C35.9681 44.766 39.5093 44.9826 39.5093 42.6271C39.5081 42.3189 39.446 42.0139 39.3267 41.7297C39.2073 41.4454 39.0331 41.1875 38.8138 40.9705C38.5946 40.7535 38.3347 40.5818 38.0489 40.4651C37.7632 40.3485 37.4572 40.2892 37.1485 40.2906C36.525 40.305 35.9314 40.5599 35.4922 41.0019C35.053 41.4439 34.8025 42.0386 34.7931 42.6611H32.4323C32.4479 41.4242 32.9499 40.243 33.8299 39.3721C34.7098 38.5012 35.8974 38.0104 37.1365 38.0056C38.3756 38.0008 39.567 38.4823 40.4537 39.3463C41.3405 40.2103 41.8517 41.3876 41.877 42.6243C41.8702 45.567 38.3289 45.9022 38.3289 48.4798V48.4852Z" fill="#3DC5FF"/>
        <path opacity="0.1" d="M56.7994 68.7722H54.3649V66.3785H56.7994V68.7722ZM56.7639 65.1633H54.4031C54.4031 61.4427 57.9443 61.6606 57.9443 59.3051C57.9431 58.997 57.881 58.6921 57.7617 58.4079C57.6423 58.1238 57.468 57.8659 57.2487 57.649C57.0295 57.4321 56.7696 57.2606 56.4838 57.144C56.1981 57.0275 55.8921 56.9684 55.5835 56.97C54.9574 56.9813 54.3603 57.2352 53.9184 57.6781C53.4765 58.121 53.2246 58.7182 53.2158 59.3433H50.855C50.8706 58.1063 51.3726 56.9251 52.2526 56.0542C53.1326 55.1833 54.3201 54.6926 55.5592 54.6877C56.7983 54.6829 57.9897 55.1644 58.8765 56.0284C59.7632 56.8924 60.2744 58.0697 60.2997 59.3065C60.3038 62.2492 56.7639 62.5857 56.7639 65.1633Z" fill="#3DC5FF"/>
        <path opacity="0.1" d="M68.0087 39.2497H66.2442V37.5182H68.0087V39.2497ZM67.9828 36.6326H66.2715C66.2715 33.9379 68.8384 34.0946 68.8384 32.3889C68.8374 32.1656 68.7923 31.9447 68.7057 31.7388C68.6191 31.533 68.4927 31.3461 68.3338 31.189C68.1749 31.0319 67.9866 30.9076 67.7795 30.8231C67.5725 30.7387 67.3508 30.6957 67.1272 30.6968C66.6743 30.706 66.2427 30.8904 65.9234 31.2111C65.6041 31.5319 65.4222 31.964 65.4159 32.4161H63.7046C63.701 31.5099 64.0581 30.6394 64.6974 29.9961C65.3367 29.3527 66.2058 28.9893 67.1135 28.9857C68.0212 28.9821 68.8932 29.3386 69.5376 29.9768C70.182 30.615 70.5461 31.4827 70.5497 32.3889C70.547 34.521 67.9828 34.7648 67.9828 36.6326Z" fill="#3DC5FF"/>
        <path opacity="0.1" d="M98.1457 41.6938H97.1481V40.7129H98.1457V41.6938ZM98.1306 40.2157H97.1577C97.1577 38.6925 98.6083 38.7811 98.6083 37.8165C98.6083 37.6904 98.5832 37.5655 98.5345 37.449C98.4858 37.3326 98.4145 37.227 98.3246 37.1383C98.2348 37.0496 98.1282 36.9796 98.011 36.9323C97.8939 36.885 97.7685 36.8614 97.6421 36.8629C97.3862 36.8681 97.1423 36.9723 96.9619 37.1535C96.7814 37.3347 96.6784 37.5787 96.6746 37.8342H95.707C95.7183 37.3308 95.9261 36.8517 96.286 36.4989C96.646 36.1461 97.1297 35.9476 97.6341 35.9457C98.1385 35.9437 98.6237 36.1385 98.9864 36.4884C99.3491 36.8384 99.5606 37.3159 99.5758 37.8192C99.5813 39.0168 98.1306 39.1598 98.1306 40.2157Z" fill="#3DC5FF"/>
        <path opacity="0.1" d="M113.397 86.3072H112.399V85.3263H113.397V86.3072ZM113.382 84.829H112.414C112.414 83.3046 113.866 83.3945 113.866 82.4299C113.865 82.1754 113.762 81.932 113.58 81.7532C113.399 81.5744 113.154 81.4748 112.899 81.4763C112.643 81.4812 112.399 81.5853 112.218 81.7665C112.038 81.9478 111.935 82.192 111.931 82.4476H110.964C110.975 81.9442 111.183 81.465 111.543 81.1123C111.903 80.7595 112.387 80.561 112.891 80.5591C113.395 80.5571 113.881 80.7519 114.243 81.1018C114.606 81.4518 114.817 81.9293 114.833 82.4326C114.838 83.6356 113.387 83.7732 113.387 84.829H113.382Z" fill="#3DC5FF"/>
    </g>    
</svg>
